<svg xmlns="http://www.w3.org/2000/svg" width="140" height="81" xmlns:xlink="http://www.w3.org/1999/xlink">
  <defs>
    <path id="a" d="M221.87 69h10.55l.55.95V70c-5.26 9.1-10.52 18.2-15.8 27.38-.87 1.5-2.2 2.8-4.54 2.6-1.87-.16-3.65-1.36-4.43-2.76-.42-.76-.7-1.92-.56-2.9.14-1.03.64-1.73 1.1-2.5 4.4-7.6 8.75-15.23 13.13-22.82zm-3.2 0c-3.03 5.28-6.05 10.58-9.15 15.86-.88 1.5-2.3 2.73-4.5 2.57-1.9-.14-3.64-1.36-4.43-2.76-.46-.78-.73-1.82-.6-2.86.14-1.07.6-1.73 1.06-2.54 1.95-3.43 3.92-6.85 5.9-10.26h11.7zm-13.82 0l-2.03 3.47c-.88 1.48-2.26 2.8-4.54 2.6-1.9-.15-3.63-1.35-4.43-2.76-.43-.75-.73-1.85-.58-2.9l.07-.4h11.5zM97 77.7l2.1-3.6h29.45c1.4 0 2.9-.17 4.16 0 2.03.3 3.52 2.2 3.67 4.2.15 2-.33 3.5-1.38 4.5-1.14 1.12-2.56 1.34-4.8 1.34H97V77.7zm0 8.85h26.22c1.77 0 3.07.15 4.16.98 2.22 1.7 2.37 5.73.48 7.7-1.12 1.16-2.32 1.45-4.72 1.45H97V86.55zm0 32.53v-3.34c.14-.36.32-.7.54-1 .9-1.25 2.7-2.5 4.88-2.38 2.2.13 3.22 1.6 4.14 3.16 6.1 10.36 11.86 20.72 17.96 31.1.2.37.58.95.7 1.23-2.63.05-5.8.02-8.7.03-.84 0-2.24.22-2.9 0-.2-.07-.56-.84-.72-1.12-5.2-8.86-10.22-17.55-15.3-26.5-.23-.4-.44-.77-.6-1.18zm0-20.17h19c1.8 0 3.1.14 4.2.97 2.22 1.68 2.45 5.77.5 7.77-1.12 1.14-2.42 1.4-4.75 1.4H97V98.9zm0 45.33v-20.2l13.7 23.77c.02 0 .08.08.02.08h-11.6L97 144.23zM221.87 150c1.75-3.05 3.5-6.1 5.27-9.13 1.77 3.03 3.52 6.1 5.28 9.13h-10.55zm-3.2 0h-11.72c4.2-7.22 8.4-14.42 12.52-21.67 2 3.33 3.9 6.73 5.86 10.1v.06c-2.25 3.8-4.46 7.65-6.66 11.5zm-13.82 0h-11.5c.2-.82.6-1.45.98-2.12 6.15-10.63 12.3-21.28 18.4-31.9 2 3.32 3.9 6.73 5.87 10.1v.05c-4.67 7.9-9.12 15.9-13.75 23.87zM237 77.7c-1.26 2.16-2.52 4.33-3.65 6.44H237V77.7zm0 8.85v10.13h-10.9c1.6-2.94 3.32-5.87 5.08-8.9.17-.3.53-1.15.76-1.23.56-.2 1.86 0 2.63 0H237zm0 32.53c-.18-.45-.3-.95-.3-1.55-.02-.66.1-1.26.3-1.8v3.35zm0-20.17v10.14h-18.03c1.77-3.33 3.86-6.8 5.8-10.13H237zm0 45.33c-4.65-7.96-9.24-16-13.9-24.02-.46-.8-.9-1.52-.92-2.7-.02-1.1.36-2.03.88-2.75.9-1.26 2.67-2.52 4.88-2.4 2.17.14 3.24 1.6 4.14 3.17l4.92 8.52v20.2zm-27.5-37.38c-3.34.05-6.7.02-10.18.02-.46 0-1.1.1-1.44 0-.2-.06-.54-.8-.7-1.1-5.24-8.87-10.15-17.6-15.32-26.53-.95-1.66-1.27-3.8-.08-5.5.86-1.2 2.76-2.5 4.88-2.38 2.2.12 3.27 1.58 4.17 3.13 6.02 10.4 11.88 20.73 17.96 31.13.2.36.56.95.7 1.22zm-14.27 0c-2.65.05-5.82.02-8.72.02-.82 0-2.22.23-2.9 0-.17-.06-.54-.83-.7-1.1-5.2-8.87-10.22-17.56-15.3-26.5-.5-.85-.9-1.6-.9-2.74-.03-1.12.3-2.04.84-2.78.9-1.26 2.7-2.52 4.88-2.4 2.2.14 3.22 1.6 4.14 3.17 6.1 10.36 11.86 20.7 17.96 31.1.2.36.57.95.7 1.23zm-14.5.02h-11.6c-5.37-9.15-10.66-18.4-16.02-27.66-.46-.8-.9-1.52-.92-2.7-.02-1.1.36-2.03.88-2.75.9-1.26 2.67-2.52 4.88-2.4 2.17.14 3.24 1.6 4.14 3.17 6.22 10.77 12.4 21.52 18.62 32.28.02 0 .08.08.02.07zm-17.76 4.08v.06c-5.26 9.1-10.52 18.2-15.8 27.38-.87 1.5-2.2 2.8-4.54 2.6-1.87-.16-3.65-1.36-4.43-2.76-.42-.76-.7-1.92-.56-2.9.14-1.03.64-1.73 1.1-2.5 6.15-10.66 12.25-21.33 18.4-31.95 1.96 3.35 3.88 6.73 5.83 10.08zm-7.64-12.52v.06c-5.33 9.05-10.45 18.23-15.8 27.36-.88 1.5-2.3 2.73-4.5 2.57-1.9-.14-3.65-1.36-4.44-2.76-.46-.78-.73-1.82-.6-2.86.14-1.07.6-1.73 1.06-2.54 6.06-10.7 12.35-21.26 18.4-31.93 2 3.33 3.92 6.73 5.87 10.1zm-6.73-12.36v.06c-5.35 9.03-10.4 18.24-15.78 27.34-.88 1.48-2.26 2.8-4.54 2.6-1.9-.15-3.63-1.35-4.43-2.76-.43-.75-.73-1.85-.58-2.9.15-1.03.6-1.75 1.06-2.52 6.15-10.63 12.3-21.28 18.4-31.9 2 3.32 3.92 6.73 5.87 10.1zm-9.1 61.78c-3.34.05-6.7.02-10.18.03-.46 0-1.1.1-1.44 0-.2-.07-.54-.82-.7-1.12-5.24-8.86-10.15-17.6-15.32-26.52-.95-1.66-1.27-3.8-.08-5.5.86-1.2 2.76-2.5 4.88-2.38 2.2.12 3.27 1.58 4.17 3.13 6.02 10.4 11.88 20.73 17.96 31.13.2.36.56.95.7 1.22zm23.85-23.7c1.76-3.3 3.84-6.74 5.76-10.06h29.45c1.4 0 2.9-.17 4.16 0 2.03.3 3.52 2.2 3.67 4.2.15 2-.33 3.5-1.38 4.5-1.14 1.12-2.56 1.34-4.8 1.34h-36.85zm-7.24 12.53c1.6-2.94 3.32-5.87 5.08-8.9.17-.3.53-1.15.76-1.23.56-.2 1.86 0 2.63 0h28.65c1.77 0 3.07.15 4.16.98 2.22 1.7 2.37 5.73.48 7.7-1.12 1.16-2.32 1.45-4.72 1.45H156.1zm-7.13 12.36c1.77-3.33 3.86-6.8 5.8-10.13H186c1.8 0 3.1.14 4.2.97 2.22 1.68 2.45 5.77.5 7.77-1.12 1.14-2.42 1.4-4.75 1.4h-36.98z"/>
  </defs>
  <use fill="#1F1F1F" fill-rule="evenodd" xlink:href="#a" transform="translate(-97 -69)"/>
</svg>
